<?xml version="1.0" encoding="UTF-8"?>
<!DOCTYPE svg
  PUBLIC '-//W3C//DTD SVG 1.1//EN'
  'http://www.w3.org/Graphics/SVG/1.1/DTD/svg11.dtd'>
<svg version="1.1" xmlns="http://www.w3.org/2000/svg" width="43.000mm" height="23.000mm">
    <!--Autogenerated with python-barcode 0.13.1-->
    <g id="barcode_group">
        <rect width="100%" height="100%" style="fill:white"/>
        <rect x="2.540mm" y="1.000mm" width="0.200mm" height="15.000mm" style="fill:black;"/>
        <rect x="2.740mm" y="1.000mm" width="0.600mm" height="15.000mm" style="fill:white;"/>
        <rect x="3.340mm" y="1.000mm" width="0.200mm" height="15.000mm" style="fill:black;"/>
        <rect x="3.540mm" y="1.000mm" width="0.200mm" height="15.000mm" style="fill:white;"/>
        <rect x="3.740mm" y="1.000mm" width="0.600mm" height="15.000mm" style="fill:black;"/>
        <rect x="4.340mm" y="1.000mm" width="0.200mm" height="15.000mm" style="fill:white;"/>
        <rect x="4.540mm" y="1.000mm" width="0.600mm" height="15.000mm" style="fill:black;"/>
        <rect x="5.140mm" y="1.000mm" width="0.200mm" height="15.000mm" style="fill:white;"/>
        <rect x="5.340mm" y="1.000mm" width="0.200mm" height="15.000mm" style="fill:black;"/>
        <rect x="5.540mm" y="1.000mm" width="0.200mm" height="15.000mm" style="fill:white;"/>
        <rect x="5.740mm" y="1.000mm" width="0.600mm" height="15.000mm" style="fill:black;"/>
        <rect x="6.340mm" y="1.000mm" width="0.200mm" height="15.000mm" style="fill:white;"/>
        <rect x="6.540mm" y="1.000mm" width="0.200mm" height="15.000mm" style="fill:black;"/>
        <rect x="6.740mm" y="1.000mm" width="0.200mm" height="15.000mm" style="fill:white;"/>
        <rect x="6.940mm" y="1.000mm" width="0.200mm" height="15.000mm" style="fill:black;"/>
        <rect x="7.140mm" y="1.000mm" width="0.200mm" height="15.000mm" style="fill:white;"/>
        <rect x="7.340mm" y="1.000mm" width="0.600mm" height="15.000mm" style="fill:black;"/>
        <rect x="7.940mm" y="1.000mm" width="0.600mm" height="15.000mm" style="fill:white;"/>
        <rect x="8.540mm" y="1.000mm" width="0.200mm" height="15.000mm" style="fill:black;"/>
        <rect x="8.740mm" y="1.000mm" width="0.200mm" height="15.000mm" style="fill:white;"/>
        <rect x="8.940mm" y="1.000mm" width="0.600mm" height="15.000mm" style="fill:black;"/>
        <rect x="9.540mm" y="1.000mm" width="0.600mm" height="15.000mm" style="fill:white;"/>
        <rect x="10.140mm" y="1.000mm" width="0.200mm" height="15.000mm" style="fill:black;"/>
        <rect x="10.340mm" y="1.000mm" width="0.200mm" height="15.000mm" style="fill:white;"/>
        <rect x="10.540mm" y="1.000mm" width="0.200mm" height="15.000mm" style="fill:black;"/>
        <rect x="10.740mm" y="1.000mm" width="0.200mm" height="15.000mm" style="fill:white;"/>
        <rect x="10.940mm" y="1.000mm" width="0.200mm" height="15.000mm" style="fill:black;"/>
        <rect x="11.140mm" y="1.000mm" width="0.200mm" height="15.000mm" style="fill:white;"/>
        <rect x="11.340mm" y="1.000mm" width="0.600mm" height="15.000mm" style="fill:black;"/>
        <rect x="11.940mm" y="1.000mm" width="0.200mm" height="15.000mm" style="fill:white;"/>
        <rect x="12.140mm" y="1.000mm" width="0.200mm" height="15.000mm" style="fill:black;"/>
        <rect x="12.340mm" y="1.000mm" width="0.200mm" height="15.000mm" style="fill:white;"/>
        <rect x="12.540mm" y="1.000mm" width="0.200mm" height="15.000mm" style="fill:black;"/>
        <rect x="12.740mm" y="1.000mm" width="0.200mm" height="15.000mm" style="fill:white;"/>
        <rect x="12.940mm" y="1.000mm" width="0.600mm" height="15.000mm" style="fill:black;"/>
        <rect x="13.540mm" y="1.000mm" width="0.200mm" height="15.000mm" style="fill:white;"/>
        <rect x="13.740mm" y="1.000mm" width="0.200mm" height="15.000mm" style="fill:black;"/>
        <rect x="13.940mm" y="1.000mm" width="0.600mm" height="15.000mm" style="fill:white;"/>
        <rect x="14.540mm" y="1.000mm" width="0.600mm" height="15.000mm" style="fill:black;"/>
        <rect x="15.140mm" y="1.000mm" width="0.200mm" height="15.000mm" style="fill:white;"/>
        <rect x="15.340mm" y="1.000mm" width="0.200mm" height="15.000mm" style="fill:black;"/>
        <rect x="15.540mm" y="1.000mm" width="0.200mm" height="15.000mm" style="fill:white;"/>
        <rect x="15.740mm" y="1.000mm" width="0.200mm" height="15.000mm" style="fill:black;"/>
        <rect x="15.940mm" y="1.000mm" width="0.200mm" height="15.000mm" style="fill:white;"/>
        <rect x="16.140mm" y="1.000mm" width="0.600mm" height="15.000mm" style="fill:black;"/>
        <rect x="16.740mm" y="1.000mm" width="0.200mm" height="15.000mm" style="fill:white;"/>
        <rect x="16.940mm" y="1.000mm" width="0.600mm" height="15.000mm" style="fill:black;"/>
        <rect x="17.540mm" y="1.000mm" width="0.600mm" height="15.000mm" style="fill:white;"/>
        <rect x="18.140mm" y="1.000mm" width="0.200mm" height="15.000mm" style="fill:black;"/>
        <rect x="18.340mm" y="1.000mm" width="0.200mm" height="15.000mm" style="fill:white;"/>
        <rect x="18.540mm" y="1.000mm" width="0.600mm" height="15.000mm" style="fill:black;"/>
        <rect x="19.140mm" y="1.000mm" width="0.200mm" height="15.000mm" style="fill:white;"/>
        <rect x="19.340mm" y="1.000mm" width="0.200mm" height="15.000mm" style="fill:black;"/>
        <rect x="19.540mm" y="1.000mm" width="0.200mm" height="15.000mm" style="fill:white;"/>
        <rect x="19.740mm" y="1.000mm" width="0.600mm" height="15.000mm" style="fill:black;"/>
        <rect x="20.340mm" y="1.000mm" width="0.600mm" height="15.000mm" style="fill:white;"/>
        <rect x="20.940mm" y="1.000mm" width="0.200mm" height="15.000mm" style="fill:black;"/>
        <rect x="21.140mm" y="1.000mm" width="0.200mm" height="15.000mm" style="fill:white;"/>
        <rect x="21.340mm" y="1.000mm" width="0.200mm" height="15.000mm" style="fill:black;"/>
        <rect x="21.540mm" y="1.000mm" width="0.200mm" height="15.000mm" style="fill:white;"/>
        <rect x="21.740mm" y="1.000mm" width="0.200mm" height="15.000mm" style="fill:black;"/>
        <rect x="21.940mm" y="1.000mm" width="0.200mm" height="15.000mm" style="fill:white;"/>
        <rect x="22.140mm" y="1.000mm" width="0.600mm" height="15.000mm" style="fill:black;"/>
        <rect x="22.740mm" y="1.000mm" width="0.200mm" height="15.000mm" style="fill:white;"/>
        <rect x="22.940mm" y="1.000mm" width="0.200mm" height="15.000mm" style="fill:black;"/>
        <rect x="23.140mm" y="1.000mm" width="0.200mm" height="15.000mm" style="fill:white;"/>
        <rect x="23.340mm" y="1.000mm" width="0.600mm" height="15.000mm" style="fill:black;"/>
        <rect x="23.940mm" y="1.000mm" width="0.600mm" height="15.000mm" style="fill:white;"/>
        <rect x="24.540mm" y="1.000mm" width="0.200mm" height="15.000mm" style="fill:black;"/>
        <rect x="24.740mm" y="1.000mm" width="0.200mm" height="15.000mm" style="fill:white;"/>
        <rect x="24.940mm" y="1.000mm" width="0.200mm" height="15.000mm" style="fill:black;"/>
        <rect x="25.140mm" y="1.000mm" width="0.200mm" height="15.000mm" style="fill:white;"/>
        <rect x="25.340mm" y="1.000mm" width="0.200mm" height="15.000mm" style="fill:black;"/>
        <rect x="25.540mm" y="1.000mm" width="0.200mm" height="15.000mm" style="fill:white;"/>
        <rect x="25.740mm" y="1.000mm" width="0.600mm" height="15.000mm" style="fill:black;"/>
        <rect x="26.340mm" y="1.000mm" width="0.200mm" height="15.000mm" style="fill:white;"/>
        <rect x="26.540mm" y="1.000mm" width="0.600mm" height="15.000mm" style="fill:black;"/>
        <rect x="27.140mm" y="1.000mm" width="0.600mm" height="15.000mm" style="fill:white;"/>
        <rect x="27.740mm" y="1.000mm" width="0.200mm" height="15.000mm" style="fill:black;"/>
        <rect x="27.940mm" y="1.000mm" width="0.200mm" height="15.000mm" style="fill:white;"/>
        <rect x="28.140mm" y="1.000mm" width="0.200mm" height="15.000mm" style="fill:black;"/>
        <rect x="28.340mm" y="1.000mm" width="0.200mm" height="15.000mm" style="fill:white;"/>
        <rect x="28.540mm" y="1.000mm" width="0.200mm" height="15.000mm" style="fill:black;"/>
        <rect x="28.740mm" y="1.000mm" width="0.200mm" height="15.000mm" style="fill:white;"/>
        <rect x="28.940mm" y="1.000mm" width="0.600mm" height="15.000mm" style="fill:black;"/>
        <rect x="29.540mm" y="1.000mm" width="0.200mm" height="15.000mm" style="fill:white;"/>
        <rect x="29.740mm" y="1.000mm" width="0.200mm" height="15.000mm" style="fill:black;"/>
        <rect x="29.940mm" y="1.000mm" width="0.600mm" height="15.000mm" style="fill:white;"/>
        <rect x="30.540mm" y="1.000mm" width="0.600mm" height="15.000mm" style="fill:black;"/>
        <rect x="31.140mm" y="1.000mm" width="0.200mm" height="15.000mm" style="fill:white;"/>
        <rect x="31.340mm" y="1.000mm" width="0.600mm" height="15.000mm" style="fill:black;"/>
        <rect x="31.940mm" y="1.000mm" width="0.200mm" height="15.000mm" style="fill:white;"/>
        <rect x="32.140mm" y="1.000mm" width="0.200mm" height="15.000mm" style="fill:black;"/>
        <rect x="32.340mm" y="1.000mm" width="0.200mm" height="15.000mm" style="fill:white;"/>
        <rect x="32.540mm" y="1.000mm" width="0.600mm" height="15.000mm" style="fill:black;"/>
        <rect x="33.140mm" y="1.000mm" width="0.600mm" height="15.000mm" style="fill:white;"/>
        <rect x="33.740mm" y="1.000mm" width="0.200mm" height="15.000mm" style="fill:black;"/>
        <rect x="33.940mm" y="1.000mm" width="0.200mm" height="15.000mm" style="fill:white;"/>
        <rect x="34.140mm" y="1.000mm" width="0.200mm" height="15.000mm" style="fill:black;"/>
        <rect x="34.340mm" y="1.000mm" width="0.200mm" height="15.000mm" style="fill:white;"/>
        <rect x="34.540mm" y="1.000mm" width="0.600mm" height="15.000mm" style="fill:black;"/>
        <rect x="35.140mm" y="1.000mm" width="0.600mm" height="15.000mm" style="fill:white;"/>
        <rect x="35.740mm" y="1.000mm" width="0.600mm" height="15.000mm" style="fill:black;"/>
        <rect x="36.340mm" y="1.000mm" width="0.200mm" height="15.000mm" style="fill:white;"/>
        <rect x="36.540mm" y="1.000mm" width="0.200mm" height="15.000mm" style="fill:black;"/>
        <rect x="36.740mm" y="1.000mm" width="0.200mm" height="15.000mm" style="fill:white;"/>
        <rect x="36.940mm" y="1.000mm" width="0.200mm" height="15.000mm" style="fill:black;"/>
        <rect x="37.140mm" y="1.000mm" width="0.200mm" height="15.000mm" style="fill:white;"/>
        <rect x="37.340mm" y="1.000mm" width="0.200mm" height="15.000mm" style="fill:black;"/>
        <rect x="37.540mm" y="1.000mm" width="0.200mm" height="15.000mm" style="fill:white;"/>
        <rect x="37.740mm" y="1.000mm" width="0.200mm" height="15.000mm" style="fill:black;"/>
        <rect x="37.940mm" y="1.000mm" width="0.600mm" height="15.000mm" style="fill:white;"/>
        <rect x="38.540mm" y="1.000mm" width="0.200mm" height="15.000mm" style="fill:black;"/>
        <rect x="38.740mm" y="1.000mm" width="0.200mm" height="15.000mm" style="fill:white;"/>
        <rect x="38.940mm" y="1.000mm" width="0.600mm" height="15.000mm" style="fill:black;"/>
        <rect x="39.540mm" y="1.000mm" width="0.200mm" height="15.000mm" style="fill:white;"/>
        <rect x="39.740mm" y="1.000mm" width="0.600mm" height="15.000mm" style="fill:black;"/>
        <rect x="40.340mm" y="1.000mm" width="0.200mm" height="15.000mm" style="fill:white;"/>
        <rect x="40.540mm" y="1.000mm" width="0.200mm" height="15.000mm" style="fill:black;"/>
        <text x="21.640mm" y="21.000mm" style="fill:black;font-size:10pt;text-anchor:middle;">RUNTESTNEW</text>
    </g>
</svg>
